<svg width="1440" height="982" viewBox="0 0 1440 982" fill="none" xmlns="http://www.w3.org/2000/svg">
<path d="M1593 729.642V747.827C1489.23 760.45 1491.01 981.573 1375 981.573C1252.24 981.573 1247.77 645.174 1125 645.174C1002.23 645.174 987.756 820.475 865 820.475C742.244 820.475 753.999 746.081 631.243 746.081C508.486 746.081 503.745 902 381 902C258.255 902 262.973 746.081 140.217 746.081C25.8472 746.081 16.8734 816.644 -83 820.475V708.552L-82.1486 708.104V0H1592.44V645.174C1592.62 645.174 1592.8 645.174 1592.99 645.174V672.552C1592.8 672.861 1592.62 673.154 1592.44 673.464V696.423C1592.61 696.485 1592.8 696.547 1592.99 696.608V721.731C1592.8 721.777 1592.61 721.824 1592.44 721.855V729.503C1592.61 729.549 1592.8 729.595 1592.99 729.642H1593Z" fill="#FAF3EB"/>
</svg>
